<?xml version="1.0" encoding="UTF-8" standalone="no"?>
<!-- Created with Inkscape (http://www.inkscape.org/) -->

<svg
   version="1.1"
   id="svg1"
   width="1600"
   height="1600"
   viewBox="0 0 1600 1600"
   sodipodi:docname="logo_RNR_white.svg"
   inkscape:version="1.4.3 (0d15f75042, 2025-12-25)"
   xmlns:inkscape="http://www.inkscape.org/namespaces/inkscape"
   xmlns:sodipodi="http://sodipodi.sourceforge.net/DTD/sodipodi-0.dtd"
   xmlns="http://www.w3.org/2000/svg"
   xmlns:svg="http://www.w3.org/2000/svg">
  <sodipodi:namedview
     id="namedview1"
     pagecolor="#ffffff"
     bordercolor="#000000"
     borderopacity="0.25"
     inkscape:showpageshadow="2"
     inkscape:pageopacity="0.0"
     inkscape:pagecheckerboard="0"
     inkscape:deskcolor="#d1d1d1"
     inkscape:zoom="0.55993999"
     inkscape:cx="810.80117"
     inkscape:cy="1001.0001"
     inkscape:window-width="3440"
     inkscape:window-height="1371"
     inkscape:window-x="0"
     inkscape:window-y="0"
     inkscape:window-maximized="1"
     inkscape:current-layer="svg1" />
  <defs
     id="defs1" />
  <path
     id="lion_head"
     style="display:inline;fill:#ffffff;fill-opacity:1;stroke:none;stroke-width:36.8702;stroke-dasharray:none;stroke-opacity:1"
     d="M 544.50993,0.50219026 C 529.7509,1.2394288 515.03193,2.7799894 500.4746,5.043488 484.39203,7.544077 468.05961,10.281319 454.31163,18.926475 v 0.624812 c 16.52782,0.317737 33.54493,4.158662 49.51166,7.882529 54.69447,12.756356 106.63926,39.7971 146.52988,77.011754 14.46736,13.49683 30.10461,28.11708 40.14351,44.94066 C 539.47726,123.13624 394.80181,195.14556 271.64851,268.01648 208.89961,305.14565 151.08673,355.5485 77.616216,373.54855 51.77988,379.87832 26.266589,377.96213 0,378.46702 c 6.2214631,20.10962 37.854632,32.23659 58.210117,33.76265 33.717838,2.52789 66.900863,-2.80478 99.693053,-9.82554 16.79837,-3.59645 33.76141,-8.68043 50.85116,-10.82749 -1.17921,5.68562 -6.54359,8.82656 -11.37332,11.85993 -8.3927,5.27113 -16.63269,10.55032 -25.42556,15.24313 -39.70202,21.18916 -85.824732,34.20871 -130.472479,42.80716 v 0.6248 C 118.42416,509.39484 217.32551,477.92851 292.39,442.91399 379.78522,402.1478 460.13378,346.01755 553.33497,316.67552 c 51.35638,-16.16829 109.28812,-22.16842 163.25699,-17.37661 64.01005,5.68351 130.61965,16.65608 187.34315,46.71224 13.23154,7.01114 25.94808,14.33029 38.1383,22.85893 2.53205,1.77142 11.82513,6.53598 10.92,10.13032 -1.02513,4.07118 -10.94673,-1.61326 -12.92916,-2.56784 -12.92568,-6.22448 -24.61342,-13.93356 -38.1343,-19.17864 -56.99265,-22.10856 -116.30602,-33.71691 -177.979,-33.71691 -125.78595,0 -246.714,54.29987 -353.27501,111.99732 -35.43696,19.18735 -69.9317,39.86587 -105.71664,58.49986 -30.48408,15.87363 -61.47597,29.14046 -94.34335,40.05261 -12.00578,3.98598 -24.15902,7.55096 -36.12914,11.6351 -5.21635,1.78003 -12.31911,3.19088 -16.57194,6.6711 -5.7471,4.703 2.94295,9.57986 7.20378,11.02947 13.65314,4.64472 28.43971,6.54069 42.82243,7.8176 50.48265,4.48245 100.37015,-12.75077 149.8745,-18.6185 -0.64556,13.14426 -12.56901,27.51711 -18.2708,39.32507 -1.32942,2.75311 -6.82423,11.88315 -3.40177,14.48868 1.89184,1.44032 6.27821,-0.5842 8.29003,-1.12002 7.476,-1.99057 14.81677,-4.43325 22.08099,-7.01021 30.22269,-10.72118 59.2588,-23.27652 90.99463,-29.81562 78.64905,-16.20565 158.61783,-10.40375 238.19426,-7.15484 37.69223,1.53895 75.41535,1.17345 113.0756,1.89723 -2.15459,-7.13673 -14.1101,-7.74236 -20.74147,-8.98727 -21.22323,-3.98437 -42.89204,-5.14143 -64.22959,-8.43885 -5.66765,-0.87573 -23.89057,-1.7471 -25.49911,-8.17575 -1.14506,-4.57651 9.48549,-9.71196 12.7863,-11.8334 15.43748,-9.92162 31.89822,-18.72642 48.17219,-27.38866 49.58141,-26.39134 106.17028,-42.49438 161.92163,-52.89948 21.30566,-3.97637 44.45268,-9.44394 66.23882,-9.61217 -6.15698,5.48098 -14.1777,7.31837 -22.08098,9.77601 l -36.12916,11.23898 c -42.7855,13.30512 -85.01877,26.57382 -126.45812,43.27575 -14.25074,5.74363 -28.31443,12.00979 -42.15269,18.57285 -3.48984,1.65501 -12.80721,5.72404 -8.34317,10.51888 2.0819,2.23636 6.07894,2.80634 9.01291,3.43642 7.28445,1.56487 14.67837,2.84956 22.07686,3.84423 25.11797,3.37667 50.48052,4.11087 75.60699,7.32239 7.53275,0.96289 22.90214,0.83273 28.67217,5.80614 4.97992,4.29243 -3.32386,8.80654 -6.59121,11.17419 -10.18427,7.38031 -21.95388,11.63477 -34.124,15.26213 -41.52743,12.37816 -86.78494,12.21439 -129.80274,13.97056 -69.52085,2.83844 -139.2683,1.1746 -208.75434,4.3243 -28.09148,1.27312 -56.15607,8.54424 -82.96595,16.07744 -7.3869,2.07566 -23.72473,4.84657 -26.09529,12.66016 l 38.13835,7.49005 v 0.62101 c -13.13409,1.06899 -27.65231,6.73051 -40.1435,10.61419 -27.00854,8.39721 -54.39938,17.21603 -78.28184,32.04039 -7.76843,4.82215 -16.83969,9.80717 -22.75071,16.64535 32.9687,0 67.35744,4.7398 99.69307,10.7361 10.41852,1.93209 27.48102,3.14684 34.12401,11.73787 -5.02638,1.80386 -9.42421,5.51541 -14.05227,8.1112 -8.84309,4.95987 -18.05038,9.52179 -27.4307,13.54002 -94.07139,40.29642 -205.40973,110.25962 -205.40973,218.04 9.94517,-2.93731 19.45982,-11.06164 28.10043,-16.43548 19.29538,-12.0007 39.51723,-24.85608 62.22449,-30.45208 12.26061,-3.02152 30.82586,-5.7816 39.7882,5.07475 3.49114,4.22897 -0.15137,6.77911 -3.65498,9.61973 -5.75413,4.66498 -11.26845,9.74 -16.72715,14.70604 -8.32696,7.57523 -17.50344,14.41307 -25.31529,22.48168 -16.02047,16.54729 -29.9999,35.67115 -41.98121,54.92997 -52.56364,84.4918 -71.34826,187.4299 -26.58537,278.3914 14.55705,29.5809 36.90157,56.7629 63.1025,78.2044 7.71179,6.3107 18.00893,17.5217 28.77018,18.5499 -11.75613,-59.0419 -3.66938,-123.2919 43.49218,-167.2895 10.07472,-9.3989 23.34389,-24.2086 37.46862,-28.0858 0.0578,19.4948 5.12146,40.1727 8.95572,59.296 10.68389,53.2851 29.06053,106.9788 68.77073,147.9392 31.4078,32.3968 72.67516,54.4473 108.94691,81.5188 18.50944,13.8143 35.35209,29.6737 52.19064,45.196 7.48017,6.8954 17.28726,18.631 27.43069,21.8416 0,-36.2241 1.56491,-71.2002 -3.53244,-107.3607 -7.12373,-50.5354 -22.93187,-98.8294 -33.93617,-148.5602 16.00969,12.163 30.3746,26.7561 45.49732,39.8925 34.96884,30.376 73.00496,58.2404 115.08483,79.5227 14.89008,7.5305 31.08305,15.5993 47.50244,19.7803 -2.19724,-15.2093 -10.94762,-30.7152 -16.85374,-44.9406 -11.5187,-27.744 -23.28308,-55.4485 -31.39604,-84.2694 -7.34834,-26.1047 -12.07488,-55.9879 -1.12711,-81.7704 15.60134,-36.7415 69.33249,-53.9899 105.58186,-33.5796 38.39122,21.6159 74.05659,50.3356 106.38228,79.1721 8.02106,7.1554 16.40317,14.5222 22.73437,23.0721 16.09195,21.7306 25.92923,45.7685 46.19166,64.9156 59.49,56.2151 173.1199,81.7851 242.8701,27.1906 24.2595,-18.9875 36.6255,-48.3258 29.5134,-77.7509 -3.3514,-13.8661 -14.815,-29.2367 -12.3942,-43.6946 1.5985,-9.5462 5.6972,-18.5514 7.3426,-28.0861 2.2412,-12.9869 0.9915,-26.2698 -3.4997,-38.7039 -1.7041,-4.7181 -5.0312,-15.4234 -9.8502,-18.0702 -2.2009,-1.2085 -4.7187,0.5983 -6.4278,1.7834 -4.8052,3.3312 -9.1586,7.3556 -13.3826,11.296 -13.8833,12.951 -28.4571,27.9005 -50.1813,25.4113 -28.1388,-3.2241 -47.7759,-28.0416 -54.1101,-52.2516 -11.4736,-43.8547 0.7135,-91.9289 21.4973,-131.7095 18.6485,-35.69438 49.5248,-70.36779 88.8136,-87.19546 21.836,-9.35259 45.8669,-13.06477 69.5876,-15.27739 22.1103,-2.06196 54.9241,-3.4273 71.5272,13.21644 15.004,15.04015 8.7857,35.65418 3.41,53.05559 -1.6957,5.48913 -8.5493,21.13192 -3.0548,25.86102 3.8012,3.2715 11.1492,-0.1136 15.0979,-1.486 13.529,-4.7054 26.881,-9.8877 39.4777,-16.5267 40.4342,-21.31053 72.4954,-52.95035 97.684,-88.99759 18.5882,-26.60121 32.5267,-56.07566 43.2674,-86.13625 9.4859,-26.54905 15.9501,-54.03083 19.8145,-81.77032 1.5607,-11.20285 4.8341,-24.63645 0.6821,-35.5798 -3.9427,-10.39261 -13.9587,-17.00958 -22.951,-23.50279 -10.9554,-7.91119 -21.4918,-16.24682 -32.7845,-23.75809 -59.9658,-39.88586 -129.6458,-66.3817 -202.0608,-78.56629 -25.0131,-4.20868 -50.1975,-7.12821 -75.6071,-7.12821 -12.598,0 -32.5027,3.31655 -44.0638,-2.1945 -3.558,-1.69573 -2.5773,-6.61249 -2.9648,-9.66529 -1.1263,-8.86868 -2.8784,-17.60983 -5.4437,-26.21922 -7.4841,-25.11757 -21.7017,-48.49882 -42.5407,-66.05847 -26.4159,-22.2588 -60.0086,-26.63585 -93.6696,-32.2997 -18.0501,-3.03701 -38.1891,-6.16809 -54.1957,-14.99926 -22.20991,-12.2536 -31.25075,-36.52199 -39.03278,-58.2979 C 968.09007,325.206 957.15595,284.11404 937.85083,244.89086 873.88702,114.93187 745.48026,10.785051 588.79437,0.76887808 574.06853,-0.17245423 559.26894,-0.2350606 544.50993,0.50219026 Z M 1067.8618,570.72204 c 19.0359,0 37.0828,3.47539 55.5311,7.72252 13.67,3.14683 27.333,6.41386 40.8174,10.20271 10.876,3.056 23.3352,5.95143 31.3839,13.9172 14.4138,14.26554 2.9548,34.03454 -13.3214,41.64514 -10.3815,4.8546 -22.1392,5.33444 -33.4544,4.59473 -41.7783,-2.73098 -79.1228,-38.31974 -80.9566,-78.0823 z m -38.1383,184.25821 c 36.0711,1.10559 72.0332,3.95572 107.7218,8.88442 46.5969,6.43519 92.888,14.85142 137.8312,28.23457 9.6061,2.86069 19.2653,5.60693 28.7705,8.76272 2.896,0.9614 8.831,1.91983 10.6869,4.33934 1.4299,1.86407 0.6863,5.5302 0.6863,7.71115 -15.6954,0.30187 -32.1457,4.12603 -47.5025,6.99096 -49.9234,9.31343 -97.7954,26.38163 -138.5012,55.35672 -15.2238,10.83644 -32.1695,24.38572 -42.7694,39.39728 -4.0663,5.75912 -10.737,21.55236 -18.7567,22.85912 -2.5545,0.41626 -3.2057,-1.57902 -3.1811,-3.51262 0.072,-5.73406 -0.9987,-11.76516 -1.7234,-17.47574 -2.5692,-20.2424 -7.6685,-41.2989 -31.9271,-47.34083 -23.7385,-5.9121 -50.15254,2.93973 -72.92798,9.00251 -64.38879,17.14018 -124.8981,48.15938 -175.96977,88.44902 -51.71791,40.79873 -95.16433,89.82883 -128.84714,144.63973 -10.63331,17.3031 -20.27821,35.3416 -28.66807,53.6842 -2.18222,4.771 -4.34384,9.5401 -6.41153,14.3553 -0.74686,1.7395 -1.41499,4.4617 -3.49574,5.2274 -3.3701,1.2406 -4.8989,-2.3684 -5.86837,-4.6024 -2.81683,-6.4912 -4.72199,-13.2545 -6.78723,-19.9749 -6.42101,-20.8934 -25.99009,-46.414 -52.76236,-40.1594 -12.19933,2.8503 -22.145,11.5589 -30.10966,20.1844 -16.79279,18.1859 -27.72784,39.8219 -38.97145,61.1706 -4.54475,8.6293 -6.95447,18.0624 -11.11601,26.8439 -2.17942,4.5992 -3.53738,8.6706 -9.46212,8.736 -0.2246,-25.325 -3.15904,-50.1076 -0.55539,-75.5258 6.5422,-63.8689 30.95597,-123.9793 69.04026,-177.27503 20.7732,-29.0704 44.97428,-54.66314 71.35578,-79.2747 8.80185,-8.21129 18.05879,-16.16196 26.18109,-24.96572 3.63731,-3.94264 8.3701,-8.47234 9.59277,-13.73431 1.73544,-7.46885 -9.27619,-11.42673 -15.03237,-13.81835 -18.75155,-7.79066 -38.38814,-13.34989 -57.54445,-20.1539 -6.1817,-2.19553 -26.62276,-9.47365 -12.04304,-15.0565 19.77543,-7.57253 42.11237,-10.5978 62.89419,-14.90398 30.99466,-6.42221 61.8164,-13.3493 93.00385,-18.96152 105.75782,-19.03124 214.95579,-31.41043 323.16944,-28.09364 z" />
</svg>
